<mxfile host="Electron" modified="2024-04-11T12:10:29.324Z" agent="Mozilla/5.0 (Windows NT 10.0; Win64; x64) AppleWebKit/537.36 (KHTML, like Gecko) draw.io/24.1.0 Chrome/120.0.6099.109 Electron/28.1.0 Safari/537.36" etag="Z6jO83z4eNaWHEhhVDYz" version="24.1.0" type="device">
  <diagram name="Page-1" id="mlML-qi4gGea_DmmxBHU">
    <mxGraphModel dx="601" dy="346" grid="1" gridSize="10" guides="1" tooltips="1" connect="1" arrows="1" fold="1" page="1" pageScale="1" pageWidth="850" pageHeight="1100" math="0" shadow="0">
      <root>
        <mxCell id="0" />
        <mxCell id="1" parent="0" />
        <mxCell id="nM9q6A4LxTHv2HHJvh-H-4" value="" style="edgeStyle=orthogonalEdgeStyle;rounded=0;orthogonalLoop=1;jettySize=auto;html=1;" parent="1" source="nM9q6A4LxTHv2HHJvh-H-1" target="nM9q6A4LxTHv2HHJvh-H-3" edge="1">
          <mxGeometry relative="1" as="geometry" />
        </mxCell>
        <mxCell id="nM9q6A4LxTHv2HHJvh-H-1" value="BOTELLA" style="rounded=0;whiteSpace=wrap;html=1;" parent="1" vertex="1">
          <mxGeometry x="300" y="265" width="80" height="30" as="geometry" />
        </mxCell>
        <mxCell id="nM9q6A4LxTHv2HHJvh-H-3" value="CUERPO" style="rounded=0;whiteSpace=wrap;html=1;" parent="1" vertex="1">
          <mxGeometry x="460" y="265" width="70" height="30" as="geometry" />
        </mxCell>
        <mxCell id="nM9q6A4LxTHv2HHJvh-H-5" value="" style="rhombus;whiteSpace=wrap;html=1;strokeWidth=2;fillWeight=-1;hachureGap=8;fillStyle=cross-hatch;fillColor=#006600;sketch=1;" parent="1" vertex="1">
          <mxGeometry x="380" y="270" width="30" height="20" as="geometry" />
        </mxCell>
        <mxCell id="nM9q6A4LxTHv2HHJvh-H-12" value="" style="endArrow=classic;html=1;rounded=0;entryX=0.5;entryY=1;entryDx=0;entryDy=0;" parent="1" target="nM9q6A4LxTHv2HHJvh-H-1" edge="1">
          <mxGeometry width="50" height="50" relative="1" as="geometry">
            <mxPoint x="340" y="360" as="sourcePoint" />
            <mxPoint x="480" y="250" as="targetPoint" />
          </mxGeometry>
        </mxCell>
        <mxCell id="nM9q6A4LxTHv2HHJvh-H-13" value="Con Tapa" style="rounded=0;whiteSpace=wrap;html=1;" parent="1" vertex="1">
          <mxGeometry x="250" y="380" width="80" height="30" as="geometry" />
        </mxCell>
        <mxCell id="nM9q6A4LxTHv2HHJvh-H-14" value="Sin Tapa" style="rounded=0;whiteSpace=wrap;html=1;" parent="1" vertex="1">
          <mxGeometry x="350" y="380" width="80" height="30" as="geometry" />
        </mxCell>
        <mxCell id="nM9q6A4LxTHv2HHJvh-H-15" value="" style="endArrow=none;html=1;rounded=0;entryX=0.5;entryY=0;entryDx=0;entryDy=0;" parent="1" target="nM9q6A4LxTHv2HHJvh-H-13" edge="1">
          <mxGeometry width="50" height="50" relative="1" as="geometry">
            <mxPoint x="340" y="360" as="sourcePoint" />
            <mxPoint x="250" y="330" as="targetPoint" />
            <Array as="points">
              <mxPoint x="290" y="360" />
            </Array>
          </mxGeometry>
        </mxCell>
        <mxCell id="nM9q6A4LxTHv2HHJvh-H-16" value="" style="endArrow=none;html=1;rounded=0;exitX=0.5;exitY=0;exitDx=0;exitDy=0;" parent="1" source="nM9q6A4LxTHv2HHJvh-H-14" edge="1">
          <mxGeometry width="50" height="50" relative="1" as="geometry">
            <mxPoint x="390" y="300" as="sourcePoint" />
            <mxPoint x="340" y="360" as="targetPoint" />
            <Array as="points">
              <mxPoint x="390" y="360" />
            </Array>
          </mxGeometry>
        </mxCell>
        <mxCell id="nM9q6A4LxTHv2HHJvh-H-17" value="" style="ellipse;whiteSpace=wrap;html=1;aspect=fixed;" parent="1" vertex="1">
          <mxGeometry x="470" y="230" width="20" height="20" as="geometry" />
        </mxCell>
        <mxCell id="nM9q6A4LxTHv2HHJvh-H-18" value="" style="endArrow=none;html=1;rounded=0;entryX=0.5;entryY=1;entryDx=0;entryDy=0;exitX=0.287;exitY=-0.003;exitDx=0;exitDy=0;exitPerimeter=0;" parent="1" source="nM9q6A4LxTHv2HHJvh-H-3" target="nM9q6A4LxTHv2HHJvh-H-17" edge="1">
          <mxGeometry width="50" height="50" relative="1" as="geometry">
            <mxPoint x="390" y="300" as="sourcePoint" />
            <mxPoint x="440" y="250" as="targetPoint" />
          </mxGeometry>
        </mxCell>
        <mxCell id="nM9q6A4LxTHv2HHJvh-H-19" value="" style="ellipse;whiteSpace=wrap;html=1;aspect=fixed;" parent="1" vertex="1">
          <mxGeometry x="310" y="230" width="20" height="20" as="geometry" />
        </mxCell>
        <mxCell id="nM9q6A4LxTHv2HHJvh-H-20" value="" style="endArrow=none;html=1;rounded=0;entryX=0.5;entryY=1;entryDx=0;entryDy=0;exitX=0.287;exitY=-0.003;exitDx=0;exitDy=0;exitPerimeter=0;" parent="1" target="nM9q6A4LxTHv2HHJvh-H-19" edge="1">
          <mxGeometry width="50" height="50" relative="1" as="geometry">
            <mxPoint x="320" y="265" as="sourcePoint" />
            <mxPoint x="280" y="250" as="targetPoint" />
          </mxGeometry>
        </mxCell>
        <mxCell id="nM9q6A4LxTHv2HHJvh-H-21" value="&lt;font style=&quot;font-size: 12px;&quot;&gt;Tipo de Material&lt;/font&gt;" style="text;strokeColor=none;fillColor=none;html=1;fontSize=24;fontStyle=1;verticalAlign=middle;align=center;" parent="1" vertex="1">
          <mxGeometry x="275" y="190" width="100" height="40" as="geometry" />
        </mxCell>
        <mxCell id="nM9q6A4LxTHv2HHJvh-H-22" value="&lt;font style=&quot;font-size: 12px;&quot;&gt;Tipo de Material&lt;/font&gt;" style="text;strokeColor=none;fillColor=none;html=1;fontSize=24;fontStyle=1;verticalAlign=middle;align=center;" parent="1" vertex="1">
          <mxGeometry x="430" y="195" width="100" height="40" as="geometry" />
        </mxCell>
        <mxCell id="nM9q6A4LxTHv2HHJvh-H-23" value="Capacidad" style="ellipse;whiteSpace=wrap;html=1;" parent="1" vertex="1">
          <mxGeometry x="225" y="225" width="70" height="30" as="geometry" />
        </mxCell>
        <mxCell id="nM9q6A4LxTHv2HHJvh-H-24" value="" style="endArrow=none;html=1;rounded=0;entryX=1;entryY=1;entryDx=0;entryDy=0;exitX=0;exitY=0;exitDx=0;exitDy=0;" parent="1" source="nM9q6A4LxTHv2HHJvh-H-1" target="nM9q6A4LxTHv2HHJvh-H-23" edge="1">
          <mxGeometry width="50" height="50" relative="1" as="geometry">
            <mxPoint x="410" y="290" as="sourcePoint" />
            <mxPoint x="460" y="240" as="targetPoint" />
          </mxGeometry>
        </mxCell>
        <mxCell id="nM9q6A4LxTHv2HHJvh-H-25" value="Tipo de Material" style="rounded=0;whiteSpace=wrap;html=1;" parent="1" vertex="1">
          <mxGeometry x="600" y="195" width="90" height="30" as="geometry" />
        </mxCell>
        <mxCell id="nM9q6A4LxTHv2HHJvh-H-28" value="" style="edgeStyle=none;rounded=0;orthogonalLoop=1;jettySize=auto;html=1;entryX=0.5;entryY=1;entryDx=0;entryDy=0;" parent="1" source="nM9q6A4LxTHv2HHJvh-H-26" target="nM9q6A4LxTHv2HHJvh-H-25" edge="1">
          <mxGeometry relative="1" as="geometry">
            <Array as="points">
              <mxPoint x="600" y="240" />
              <mxPoint x="645" y="240" />
            </Array>
          </mxGeometry>
        </mxCell>
        <mxCell id="nM9q6A4LxTHv2HHJvh-H-26" value="Identificador" style="ellipse;whiteSpace=wrap;html=1;" parent="1" vertex="1">
          <mxGeometry x="560" y="250" width="75" height="25" as="geometry" />
        </mxCell>
        <mxCell id="nM9q6A4LxTHv2HHJvh-H-29" value="" style="edgeStyle=none;rounded=0;orthogonalLoop=1;jettySize=auto;html=1;entryX=0.5;entryY=1;entryDx=0;entryDy=0;" parent="1" source="nM9q6A4LxTHv2HHJvh-H-27" target="nM9q6A4LxTHv2HHJvh-H-25" edge="1">
          <mxGeometry relative="1" as="geometry">
            <Array as="points">
              <mxPoint x="688" y="240" />
              <mxPoint x="645" y="240" />
            </Array>
          </mxGeometry>
        </mxCell>
        <mxCell id="nM9q6A4LxTHv2HHJvh-H-27" value="Descripcion" style="ellipse;whiteSpace=wrap;html=1;" parent="1" vertex="1">
          <mxGeometry x="657.5" y="250" width="75" height="25" as="geometry" />
        </mxCell>
        <mxCell id="nM9q6A4LxTHv2HHJvh-H-30" value="" style="endArrow=none;html=1;rounded=0;exitX=1.005;exitY=0.494;exitDx=0;exitDy=0;exitPerimeter=0;" parent="1" source="nM9q6A4LxTHv2HHJvh-H-32" edge="1">
          <mxGeometry width="50" height="50" relative="1" as="geometry">
            <mxPoint x="460" y="360" as="sourcePoint" />
            <mxPoint x="520" y="360" as="targetPoint" />
            <Array as="points">
              <mxPoint x="520" y="320" />
            </Array>
          </mxGeometry>
        </mxCell>
        <mxCell id="nM9q6A4LxTHv2HHJvh-H-32" value="" style="html=1;whiteSpace=wrap;aspect=fixed;shape=isoRectangle;rotation=90;" parent="1" vertex="1">
          <mxGeometry x="350" y="300" width="25" height="15" as="geometry" />
        </mxCell>
        <mxCell id="nM9q6A4LxTHv2HHJvh-H-33" value="Etiqueta" style="rounded=0;whiteSpace=wrap;html=1;" parent="1" vertex="1">
          <mxGeometry x="480" y="360" width="80" height="30" as="geometry" />
        </mxCell>
        <mxCell id="nM9q6A4LxTHv2HHJvh-H-34" value="" style="ellipse;whiteSpace=wrap;html=1;aspect=fixed;" parent="1" vertex="1">
          <mxGeometry x="250" y="345" width="20" height="20" as="geometry" />
        </mxCell>
        <mxCell id="nM9q6A4LxTHv2HHJvh-H-35" value="" style="endArrow=none;html=1;rounded=0;entryX=0.5;entryY=1;entryDx=0;entryDy=0;exitX=0.287;exitY=-0.003;exitDx=0;exitDy=0;exitPerimeter=0;" parent="1" target="nM9q6A4LxTHv2HHJvh-H-34" edge="1">
          <mxGeometry width="50" height="50" relative="1" as="geometry">
            <mxPoint x="260" y="380" as="sourcePoint" />
            <mxPoint x="220" y="365" as="targetPoint" />
          </mxGeometry>
        </mxCell>
        <mxCell id="nM9q6A4LxTHv2HHJvh-H-36" value="&lt;font style=&quot;font-size: 8px;&quot;&gt;Tapa&lt;/font&gt;" style="text;strokeColor=none;fillColor=none;html=1;fontSize=24;fontStyle=1;verticalAlign=middle;align=center;" parent="1" vertex="1">
          <mxGeometry x="210" y="315" width="100" height="40" as="geometry" />
        </mxCell>
        <mxCell id="nM9q6A4LxTHv2HHJvh-H-38" value="" style="ellipse;whiteSpace=wrap;html=1;aspect=fixed;" parent="1" vertex="1">
          <mxGeometry x="380" y="235" width="20" height="20" as="geometry" />
        </mxCell>
        <mxCell id="nM9q6A4LxTHv2HHJvh-H-39" value="" style="endArrow=none;html=1;rounded=0;entryX=0.5;entryY=1;entryDx=0;entryDy=0;exitX=1;exitY=0;exitDx=0;exitDy=0;" parent="1" source="nM9q6A4LxTHv2HHJvh-H-1" target="nM9q6A4LxTHv2HHJvh-H-38" edge="1">
          <mxGeometry width="50" height="50" relative="1" as="geometry">
            <mxPoint x="395" y="265" as="sourcePoint" />
            <mxPoint x="355" y="250" as="targetPoint" />
          </mxGeometry>
        </mxCell>
        <mxCell id="nM9q6A4LxTHv2HHJvh-H-40" value="&lt;font style=&quot;font-size: 6px;&quot;&gt;IABM&lt;/font&gt;" style="text;strokeColor=none;fillColor=none;html=1;fontSize=24;fontStyle=1;verticalAlign=middle;align=center;" parent="1" vertex="1">
          <mxGeometry x="340" y="220" width="100" height="40" as="geometry" />
        </mxCell>
        <mxCell id="nM9q6A4LxTHv2HHJvh-H-41" value="" style="ellipse;whiteSpace=wrap;html=1;aspect=fixed;" parent="1" vertex="1">
          <mxGeometry x="530" y="235" width="20" height="20" as="geometry" />
        </mxCell>
        <mxCell id="nM9q6A4LxTHv2HHJvh-H-42" value="" style="endArrow=none;html=1;rounded=0;entryX=0.5;entryY=1;entryDx=0;entryDy=0;exitX=1;exitY=0;exitDx=0;exitDy=0;" parent="1" target="nM9q6A4LxTHv2HHJvh-H-41" edge="1">
          <mxGeometry width="50" height="50" relative="1" as="geometry">
            <mxPoint x="530" y="265" as="sourcePoint" />
            <mxPoint x="505" y="250" as="targetPoint" />
          </mxGeometry>
        </mxCell>
        <mxCell id="nM9q6A4LxTHv2HHJvh-H-43" value="" style="ellipse;whiteSpace=wrap;html=1;aspect=fixed;" parent="1" vertex="1">
          <mxGeometry x="690" y="165" width="20" height="20" as="geometry" />
        </mxCell>
        <mxCell id="nM9q6A4LxTHv2HHJvh-H-44" value="" style="endArrow=none;html=1;rounded=0;entryX=0.5;entryY=1;entryDx=0;entryDy=0;exitX=1;exitY=0;exitDx=0;exitDy=0;" parent="1" target="nM9q6A4LxTHv2HHJvh-H-43" edge="1">
          <mxGeometry width="50" height="50" relative="1" as="geometry">
            <mxPoint x="690" y="195" as="sourcePoint" />
            <mxPoint x="665" y="180" as="targetPoint" />
          </mxGeometry>
        </mxCell>
        <mxCell id="nM9q6A4LxTHv2HHJvh-H-45" value="&lt;font style=&quot;font-size: 6px;&quot;&gt;IABM&lt;/font&gt;" style="text;strokeColor=none;fillColor=none;html=1;fontSize=24;fontStyle=1;verticalAlign=middle;align=center;" parent="1" vertex="1">
          <mxGeometry x="490" y="220" width="100" height="40" as="geometry" />
        </mxCell>
        <mxCell id="nM9q6A4LxTHv2HHJvh-H-46" value="&lt;font style=&quot;font-size: 6px;&quot;&gt;IABM&lt;/font&gt;" style="text;strokeColor=none;fillColor=none;html=1;fontSize=24;fontStyle=1;verticalAlign=middle;align=center;" parent="1" vertex="1">
          <mxGeometry x="650" y="150" width="100" height="40" as="geometry" />
        </mxCell>
        <mxCell id="nM9q6A4LxTHv2HHJvh-H-47" value="" style="ellipse;whiteSpace=wrap;html=1;aspect=fixed;" parent="1" vertex="1">
          <mxGeometry x="540" y="325" width="20" height="20" as="geometry" />
        </mxCell>
        <mxCell id="nM9q6A4LxTHv2HHJvh-H-48" value="" style="endArrow=none;html=1;rounded=0;entryX=0.5;entryY=1;entryDx=0;entryDy=0;exitX=0.287;exitY=-0.003;exitDx=0;exitDy=0;exitPerimeter=0;" parent="1" target="nM9q6A4LxTHv2HHJvh-H-47" edge="1">
          <mxGeometry width="50" height="50" relative="1" as="geometry">
            <mxPoint x="550" y="360" as="sourcePoint" />
            <mxPoint x="510" y="345" as="targetPoint" />
          </mxGeometry>
        </mxCell>
        <mxCell id="nM9q6A4LxTHv2HHJvh-H-49" value="&lt;font style=&quot;font-size: 12px;&quot;&gt;Tipo de Material&lt;/font&gt;" style="text;strokeColor=none;fillColor=none;html=1;fontSize=24;fontStyle=1;verticalAlign=middle;align=center;" parent="1" vertex="1">
          <mxGeometry x="520" y="295" width="100" height="40" as="geometry" />
        </mxCell>
        <mxCell id="p-qRdIwgKawCJYkQpf6r-2" value="Tapa" style="rounded=0;whiteSpace=wrap;html=1;" vertex="1" parent="1">
          <mxGeometry x="170" y="305" width="50" height="20" as="geometry" />
        </mxCell>
        <mxCell id="p-qRdIwgKawCJYkQpf6r-3" value="" style="ellipse;whiteSpace=wrap;html=1;aspect=fixed;" vertex="1" parent="1">
          <mxGeometry x="170" y="270" width="20" height="20" as="geometry" />
        </mxCell>
        <mxCell id="p-qRdIwgKawCJYkQpf6r-4" value="" style="endArrow=none;html=1;rounded=0;entryX=0.5;entryY=1;entryDx=0;entryDy=0;exitX=0.287;exitY=-0.003;exitDx=0;exitDy=0;exitPerimeter=0;" edge="1" parent="1" target="p-qRdIwgKawCJYkQpf6r-3">
          <mxGeometry width="50" height="50" relative="1" as="geometry">
            <mxPoint x="180" y="305" as="sourcePoint" />
            <mxPoint x="140" y="290" as="targetPoint" />
          </mxGeometry>
        </mxCell>
        <mxCell id="p-qRdIwgKawCJYkQpf6r-5" value="&lt;font style=&quot;font-size: 8px;&quot;&gt;Tapa&lt;/font&gt;" style="text;strokeColor=none;fillColor=none;html=1;fontSize=24;fontStyle=1;verticalAlign=middle;align=center;" vertex="1" parent="1">
          <mxGeometry x="130" y="240" width="100" height="40" as="geometry" />
        </mxCell>
      </root>
    </mxGraphModel>
  </diagram>
</mxfile>
